<?xml version="1.0" encoding="UTF-8"?>
<svg width="67px" height="72px" viewBox="0 0 67 72" version="1.1" xmlns="http://www.w3.org/2000/svg" xmlns:xlink="http://www.w3.org/1999/xlink">
    <!-- Generator: sketchtool 51.1 (57501) - http://www.bohemiancoding.com/sketch -->
    <title>D74AF703-0AC1-4939-ACD0-B8D46175427F</title>
    <desc>Created with sketchtool.</desc>
    <defs></defs>
    <g id="Screens" stroke="none" stroke-width="1" fill="none" fill-rule="evenodd">
        <g id="Care_type" transform="translate(-267.000000, -303.000000)">
            <g id="Group" transform="translate(140.000000, 130.000000)">
                <g id="picto-consultation" transform="translate(127.000000, 173.000000)">
                    <circle id="Oval-2" fill="#F29400" cx="57.5" cy="30.5" r="7.5"></circle>
                    <path d="M30.3574219,1.47928076 L30.3074219,1.47928076 C29.3545573,0.494129647 28.1545573,0.00104045737 26.7074219,1.31882291e-05 C25.2970052,-0.00294021056 24.0970052,0.490148979 23.1074219,1.47928076 C22.1084635,2.45171941 21.6084635,3.65156977 21.6074219,5.07883184 C21.6044271,6.46975426 22.1044271,7.63673201 23.1074219,8.57976508 L23.1074219,8.629074 C24.0970052,9.61820578 25.2970052,10.111295 26.7074219,10.1083416 C28.1545573,10.1073143 29.3545573,9.61422511 30.3074219,8.629074 L30.3574219,8.57976508 C30.699349,8.26914458 30.9826823,7.92398214 31.2074219,7.54427779 C33.5050781,8.12930756 34.9384115,10.0359191 35.5074219,13.2641124 L32.1074219,40.6305624 C31.4742187,45.5121454 28.5408854,48.2570085 23.3074219,48.8651519 L16.3574219,48.9637697 C10.3235677,48.7985078 6.89023437,45.5441191 6.05742187,39.2006037 L6.05742187,39.1512948 L2.50742187,13.2641124 C3.11302083,10.0347634 4.56302083,8.12815189 6.85742188,7.54427779 C7.08763021,7.93348438 7.37096354,8.29508312 7.70742188,8.629074 L7.70742188,8.57976508 C8.73385417,9.59778881 9.95052083,10.1073143 11.3574219,10.1083416 C12.7641927,10.1073143 13.9641927,9.59778881 14.9574219,8.57976508 L14.9574219,8.629074 C15.99375,7.6648535 16.5104167,6.48143945 16.5074219,5.07883184 C16.5063802,3.63949936 15.9897135,2.439649 14.9574219,1.47928076 C13.9641927,0.494001238 12.7641927,0.000912048731 11.3574219,1.31882291e-05 C9.95052083,0.000912048731 8.73385417,0.494001238 7.70742188,1.47928076 C6.70846354,2.439649 6.20846354,3.63949936 6.20742188,5.07883184 C6.20742188,5.1050272 6.20742188,5.12146351 6.20742188,5.12814076 C2.85338542,5.8492837 0.78671875,8.51196532 0.007421875,13.1161856 C-0.00247395833,13.2406136 -0.00247395833,13.3556677 0.007421875,13.4613481 L3.55742187,39.4964573 C4.59921875,47.2884221 8.84921875,51.2660083 16.3074219,51.4292156 L18.5074219,51.3799067 C17.5815104,62.9413073 22.9981771,69.5487025 34.7574219,71.2020921 C34.8009115,71.2028626 34.8342448,71.2028626 34.8574219,71.2020921 C45.74375,71.999253 53.34375,69.583116 57.6574219,63.9536811 C61.9299479,58.6333257 63.1132812,50.3494274 61.2074219,39.1019859 C62.2266927,38.6587193 63.160026,38.001267 64.0074219,37.1296292 C65.8007812,35.3995795 66.7007812,33.2628597 66.7074219,30.7194697 C66.7092448,28.2139602 65.8259115,26.0608041 64.0574219,24.2600013 L64.0074219,24.2600013 C62.2145833,22.5159551 60.0479167,21.6448309 57.5074219,21.6466286 C54.9667969,21.6448309 52.7834635,22.5159551 50.9574219,24.2600013 C49.1595052,26.0600337 48.2595052,28.2131898 48.2574219,30.7194697 C48.259375,33.2719767 49.159375,35.4251328 50.9574219,37.1789381 L50.9574219,37.1296292 C52.7826823,38.9354399 54.9660156,39.8394367 57.5074219,39.8416197 C57.9455729,39.8403356 58.3789062,39.807463 58.8074219,39.7430019 C60.4924479,49.9855173 59.4591146,57.5462182 55.7074219,62.4251046 C51.7550781,67.3477783 44.8717448,69.4516255 35.0574219,68.7366462 L35.1074219,68.7366462 C24.8579427,67.2932046 20.1746094,61.4911885 21.0574219,51.3305978 L23.4574219,51.3305978 C23.5061198,51.3334228 23.5561198,51.3334228 23.6074219,51.3305978 C30.1738281,50.557963 33.8404948,47.0899024 34.6074219,40.9264159 L38.0574219,13.4613481 C38.0664062,13.3466791 38.0497396,13.231625 38.0074219,13.1161856 C37.2613281,8.51209373 35.2113281,5.84941211 31.8574219,5.12814076 C31.8574219,5.1213351 31.8574219,5.10489879 31.8574219,5.07883184 C31.8563802,3.65169818 31.3563802,2.45184782 30.3574219,1.47928076 Z M24.8574219,3.25440184 L24.9074219,3.20509292 C25.3963542,2.71495713 25.9963542,2.46841253 26.7074219,2.46545914 C27.4479167,2.46456027 28.0645833,2.71110487 28.5574219,3.20509292 L28.5574219,3.25440184 C29.0916667,3.74030014 29.3583333,4.34844348 29.3574219,5.07883184 C29.3544271,5.77994303 29.0877604,6.37165006 28.5574219,6.85395292 C28.0645833,7.38081358 27.4479167,7.64379448 26.7074219,7.64289562 C25.9963542,7.63994223 25.3963542,7.37696132 24.9074219,6.85395292 L24.8574219,6.85395292 C24.3604167,6.37165006 24.1104167,5.77994303 24.1074219,5.07883184 C24.1065104,4.34844348 24.3565104,3.74030014 24.8574219,3.25440184 Z M52.7074219,25.9858135 L52.7074219,26.0351224 C54.0479167,24.7548882 55.6479167,24.1138723 57.5074219,24.1120746 C59.3549479,24.1138723 60.9382812,24.7384519 62.2574219,25.9858135 L62.2574219,26.0351224 C63.555599,27.3359019 64.205599,28.897351 64.2074219,30.7194697 C64.2139323,32.5808814 63.5639323,34.1423305 62.2574219,35.403817 C61.4295573,36.2487459 60.496224,36.8240166 59.4574219,37.1296292 C59.4223958,37.1423416 59.3890625,37.1423416 59.3574219,37.1296292 C58.7622396,37.2965604 58.1455729,37.3787419 57.5074219,37.3761737 C55.6486979,37.3782283 54.0486979,36.720776 52.7074219,35.403817 C51.4053385,34.1333419 50.7553385,32.5718928 50.7574219,30.7194697 C50.7552083,28.8864363 51.4052083,27.3085509 52.7074219,25.9858135 Z M13.2074219,3.20509292 L13.2074219,3.25440184 C13.7416667,3.74030014 14.0083333,4.34844348 14.0074219,5.07883184 C14.0044271,5.77994303 13.7377604,6.37165006 13.2074219,6.85395292 C12.7005208,7.38081358 12.0838542,7.64379448 11.3574219,7.64289562 C10.6308594,7.64379448 9.99752604,7.38081358 9.45742187,6.85395292 C8.96041667,6.37165006 8.71041667,5.77994303 8.70742187,5.07883184 C8.70651042,4.34844348 8.95651042,3.74030014 9.45742187,3.25440184 L9.45742187,3.20509292 C9.99752604,2.71097646 10.6308594,2.46443187 11.3574219,2.46545914 C12.0838542,2.46443187 12.7005208,2.71097646 13.2074219,3.20509292 Z" id="Shape" fill="#58585A" fill-rule="nonzero"></path>
                </g>
            </g>
        </g>
    </g>
</svg>