<?xml version="1.0" encoding="UTF-8"?>
<svg width="38px" height="48px" viewBox="0 0 38 48" version="1.1" xmlns="http://www.w3.org/2000/svg" xmlns:xlink="http://www.w3.org/1999/xlink">
    <!-- Generator: sketchtool 51.1 (57501) - http://www.bohemiancoding.com/sketch -->
    <title>E7FC5BAF-D458-44C0-8DB0-834BCE4AD006</title>
    <desc>Created with sketchtool.</desc>
    <defs></defs>
    <g id="Screens" stroke="none" stroke-width="1" fill="none" fill-rule="evenodd">
        <g id="Care_type" transform="translate(-764.000000, -315.000000)">
            <g id="Group" transform="translate(140.000000, 130.000000)">
                <g id="picto-dentaire" transform="translate(624.000000, 185.000000)">
                    <path d="M37.7196291,10.4505 C37.9070428,9.795 38,9.1395 38,8.484 C38,5.019 35.941448,2.0235 32.7584139,0.618 C31.7883606,0.2295 30.6863681,0.021 29.5408956,0.021 C29.0281318,0.021 28.5063721,0.063 27.9846123,0.15 L26.0190176,0.525 C23.6785954,0.9465 21.3156836,1.1565 18.9527717,1.1565 C16.5898599,1.1565 14.2254488,0.9465 11.8865259,0.525 L9.92093115,0.15 C9.33919905,0.0525 8.75746696,0 8.18772934,0 C7.10672717,0 6.06620635,0.189 5.14712961,0.618 C1.96559479,1.929 0,5.019 0,8.484 C0,9.1395 0.0929571908,9.795 0.187413691,10.4505 L3.5563622,25.7145 C3.74377589,26.745 3.93118958,28.617 3.83673308,29.367 L3.36894851,32.7375 C3.36894851,33.018 3.27599132,33.3 3.27599132,33.5805 C2.99562044,36.858 4.11860327,40.2285 6.27161176,43.038 C9.73501677,47.4375 11.4187414,48 12.7291379,48 C13.7591635,48 14.7876899,47.532 15.4428881,46.782 C16.0980864,46.0335 16.4729138,45.096 16.3784573,44.16 L16.0036299,38.7285 C15.9106727,37.3245 16.0036299,36.0135 16.2840008,34.608 L17.1266127,30.582 C17.2195699,30.114 17.781811,29.739 18.4370093,29.739 C19.0922075,29.739 19.6544486,30.114 19.7474058,30.582 L20.7774314,34.7025 C21.1522588,36.0135 21.245216,37.4175 21.245216,38.7285 L21.0578023,44.16 C21.0578023,45.096 21.3381732,46.0335 22.087828,46.689 C22.7430262,47.4375 23.7730519,47.8125 24.8015782,47.8125 C26.1119747,47.8125 27.7971987,47.25 31.2591044,42.9435 C33.6924837,39.8535 34.8154666,36.201 34.2547248,32.55 L33.7869402,29.1795 C33.693983,28.431 33.8798974,26.6505 34.0673111,25.527 L37.7196291,10.4505 Z M30.4269876,24.6435 C30.4059972,24.732 30.3880055,24.8205 30.3730124,24.9105 C30.3205366,25.224 29.8677451,28.0245 30.0761491,29.6955 L30.5514303,33.1215 C30.9442494,35.6745 30.1706056,38.2695 28.3399487,40.5945 C25.9245611,43.599 24.9245216,44.0235 24.8120734,44.061 L24.9919905,38.8605 C24.9934898,38.817 24.9934898,38.775 24.9934898,38.7315 C24.9934898,36.774 24.8045768,35.184 24.3997633,33.7395 L23.3967252,29.7255 C22.8989544,27.555 20.8344052,25.992 18.4370093,25.992 C15.9946341,25.992 13.8985993,27.6135 13.4578023,29.817 L12.6091931,33.876 C12.2583547,35.631 12.1489051,37.2525 12.2643519,38.9895 L12.6241862,44.202 C12.2868416,44.0205 11.2598146,43.3185 9.24474255,40.758 C7.60749655,38.622 6.81436181,36.1875 7.00927205,33.9015 C7.0182679,33.795 7.02276583,33.6885 7.02276583,33.5805 C7.02276583,33.6705 7.01976721,33.7605 7.0182679,33.7755 C7.04525547,33.615 7.08573683,33.3735 7.10522786,33.078 L7.55502071,29.8305 C7.7409351,28.3455 7.38260012,25.8135 7.24316433,25.0425 C7.23416848,24.996 7.22517262,24.951 7.21617676,24.9045 L3.87871375,9.78 C3.80974551,9.294 3.74977313,8.838 3.74977313,8.484 C3.74977313,6.489 4.83227461,4.8045 6.57597159,4.086 C6.62844743,4.0635 6.68242257,4.041 6.73339909,4.017 C7.10522786,3.843 7.60899586,3.7515 8.18922864,3.7515 C8.5280726,3.7515 8.8909055,3.783 9.2672322,3.843 L11.2238311,4.215 C13.771158,4.674 16.3724601,4.9065 18.9542711,4.9065 C21.5360821,4.9065 24.1373841,4.674 26.7221937,4.2075 L28.6398106,3.8415 C28.9381732,3.7935 29.242533,3.7695 29.5423949,3.7695 C30.1751036,3.7695 30.7838232,3.8745 31.3085816,4.0755 C33.1257447,4.9035 34.2532255,6.5865 34.2532255,8.4825 C34.2532255,8.79 34.2082462,9.0975 34.1167883,9.4185 C34.1032945,9.468 34.0898007,9.516 34.0778063,9.5655 L30.4269876,24.6435 Z" id="Shape" fill="#58585A" fill-rule="nonzero"></path>
                    <path d="M30.0426231,5 C31.7097573,5.87707201 32.5054652,6.81358964 32.4297468,7.8095529 C32.3540283,8.80551616 31.5583204,12.5072515 30.0426231,18.9147591 C29.347541,21.5469714 29,23.2753778 29,24.0999782 C29,25.3368789 31.0852462,8.58118365 30.0426231,7.8095529 C29.347541,7.2951324 29.347541,6.35861476 30.0426231,5 Z" id="Path-4" stroke="#F29400" fill="#F29400"></path>
                </g>
            </g>
        </g>
    </g>
</svg>