<?xml version="1.0" encoding="UTF-8"?>
<svg width="73px" height="75px" viewBox="0 0 73 75" version="1.1" xmlns="http://www.w3.org/2000/svg" xmlns:xlink="http://www.w3.org/1999/xlink">
    <!-- Generator: sketchtool 51.1 (57501) - http://www.bohemiancoding.com/sketch -->
    <title>CB0C5101-BF66-4318-8994-BE48D607B32D</title>
    <desc>Created with sketchtool.</desc>
    <defs></defs>
    <g id="Screens" stroke="none" stroke-width="1" fill="none" fill-rule="evenodd">
        <g id="Optical" transform="translate(-505.000000, -310.000000)">
            <g id="Glasses-and-lenses" transform="translate(505.000000, 310.000000)">
                <g id="Lenses" transform="translate(17.000000, 44.000000)" fill-rule="nonzero">
                    <g id="lense">
                        <path d="M15.6979582,22.8818329 C8.29652636,23.2720891 2.51040441,18.712137 2.10426918,10.9153947 C1.90409134,7.07249963 3.02597727,4.90414053 5.41834898,3.69684381 C7.35639858,2.71881817 9.46360181,2.4215752 14.582875,2.15163288 C14.6004445,2.15070646 14.6004445,2.15070646 14.6180178,2.14977986 C22.7644409,1.72024244 26.5886642,3.65131651 26.8989523,9.60804243 C27.2634674,16.6057855 22.2351125,22.5371475 15.6979582,22.8818329 Z M15.806943,24.9740584 C23.5183307,24.5674591 29.4019416,17.6272516 28.9785064,9.49839355 C28.591556,2.06995205 23.6516248,-0.424508196 14.509033,0.0575543259 C14.4914584,0.0584809872 14.4914584,0.0584809872 14.473883,0.0594077219 C9.03932561,0.345975165 6.78313187,0.664234803 4.484704,1.82412329 C1.31632934,3.42302545 -0.216911325,6.38644293 0.0247151098,11.0250435 C0.494628921,20.046169 7.31573437,25.4217754 15.806943,24.9740584 Z" id="Shape" fill="#58585A"></path>
                        <path d="M5.09621056,10.8464644 C5.08338688,10.7646757 5.06320356,10.6083858 5.04275681,10.3942128 C4.97150664,9.64789072 4.96197157,8.8607388 5.05274625,8.13327797 C5.14106824,7.42547272 5.31902193,6.84281047 5.59026014,6.42974285 C5.90840435,5.94524225 7.20583867,5.52411116 9.08382411,5.26853683 C9.93879745,5.15218381 10.8580124,5.07467973 11.7776828,5.02888064 C12.0999085,5.01283399 12.3990046,5.00190979 12.6671291,4.99516776 C12.8272024,4.99114271 12.9407634,4.98940711 13,4.98901293 L12.9934482,4 C12.9283322,4.00043331 12.8087317,4.0022612 12.642379,4.00644416 C12.3664603,4.01338216 12.0593367,4.02459956 11.7287105,4.04106456 C10.7830896,4.08815596 9.83701335,4.16792488 8.95104821,4.28849554 C6.76924046,4.58541695 5.30867408,5.05949868 4.76594195,5.88602336 C4.39911258,6.44466639 4.1790358,7.16524956 4.07355775,8.01054204 C3.97249358,8.82046201 3.98285563,9.67588347 4.06042683,10.4884163 C4.0828741,10.7235442 4.10558482,10.899405 4.12135715,11 L5.09621056,10.8464644 Z" id="Shape" fill="#F29400"></path>
                    </g>
                    <g id="lense" transform="translate(25.500000, 18.500000) scale(-1, 1) translate(-25.500000, -18.500000) translate(11.000000, 6.000000)">
                        <path d="M15.6979582,22.8818329 C8.29652636,23.2720891 2.51040441,18.712137 2.10426918,10.9153947 C1.90409134,7.07249963 3.02597727,4.90414053 5.41834898,3.69684381 C7.35639858,2.71881817 9.46360181,2.4215752 14.582875,2.15163288 C14.6004445,2.15070646 14.6004445,2.15070646 14.6180178,2.14977986 C22.7644409,1.72024244 26.5886642,3.65131651 26.8989523,9.60804243 C27.2634674,16.6057855 22.2351125,22.5371475 15.6979582,22.8818329 Z M15.806943,24.9740584 C23.5183307,24.5674591 29.4019416,17.6272516 28.9785064,9.49839355 C28.591556,2.06995205 23.6516248,-0.424508196 14.509033,0.0575543259 C14.4914584,0.0584809872 14.4914584,0.0584809872 14.473883,0.0594077219 C9.03932561,0.345975165 6.78313187,0.664234803 4.484704,1.82412329 C1.31632934,3.42302545 -0.216911325,6.38644293 0.0247151098,11.0250435 C0.494628921,20.046169 7.31573437,25.4217754 15.806943,24.9740584 Z" id="Shape" fill="#58585A"></path>
                        <path d="M5.09621056,10.8464644 C5.08338688,10.7646757 5.06320356,10.6083858 5.04275681,10.3942128 C4.97150664,9.64789072 4.96197157,8.8607388 5.05274625,8.13327797 C5.14106824,7.42547272 5.31902193,6.84281047 5.59026014,6.42974285 C5.90840435,5.94524225 7.20583867,5.52411116 9.08382411,5.26853683 C9.93879745,5.15218381 10.8580124,5.07467973 11.7776828,5.02888064 C12.0999085,5.01283399 12.3990046,5.00190979 12.6671291,4.99516776 C12.8272024,4.99114271 12.9407634,4.98940711 13,4.98901293 L12.9934482,4 C12.9283322,4.00043331 12.8087317,4.0022612 12.642379,4.00644416 C12.3664603,4.01338216 12.0593367,4.02459956 11.7287105,4.04106456 C10.7830896,4.08815596 9.83701335,4.16792488 8.95104821,4.28849554 C6.76924046,4.58541695 5.30867408,5.05949868 4.76594195,5.88602336 C4.39911258,6.44466639 4.1790358,7.16524956 4.07355775,8.01054204 C3.97249358,8.82046201 3.98285563,9.67588347 4.06042683,10.4884163 C4.0828741,10.7235442 4.10558482,10.899405 4.12135715,11 L5.09621056,10.8464644 Z" id="Shape" fill="#F29400"></path>
                    </g>
                </g>
                <text id="+" font-family="Bree-Regular, Bree" font-size="24" font-weight="normal" fill="#58585A">
                    <tspan x="30.58" y="38">+</tspan>
                </text>
                <g id="picto-optique">
                    <path d="M69.4362069,1.59923837 C57.9543103,-0.41714094 54.4284483,-0.526623698 42.5793103,1.26992803 C41.2810345,1.46734182 39.3655172,2.08630734 37.9715517,2.08630734 C32.7396552,2.08630734 35.4241379,2.1483763 30.5689655,1.35182458 C17.2456897,-0.541278871 14.1896552,-0.0973133534 1.65086207,1.88113492 C0.948275862,1.99234182 0,2.08630734 0,2.79923837 C0,6.24061768 2.36896552,5.19234182 3.7362069,8.62768665 C4.77413793,11.2363073 3.98793103,13.4363073 5.0112069,16.631997 C5.73793103,18.9018246 7.07586207,20.7751004 8.96551724,21.9561349 C14.3405172,25.3156177 26.412931,25.5225142 30.387069,20.1966522 C33.262931,16.3423418 32.6163793,13.1302729 33.487069,9.30699699 C34.0715517,6.73975561 35.2284483,6.93889354 37.1146552,6.93889354 C40.7706897,6.93889354 38.3689655,14.7397556 42.4163793,20.194928 C42.7603448,20.6587211 43.0689655,21.0173418 43.5172414,21.3776866 C48.3017241,25.2242384 58.3224138,25.3225142 63.75,22.0104453 C69.5318966,18.4811349 67.9,11.6095832 69.0258621,8.72854872 C70.425,5.14751423 72.8025862,6.2233763 72.8025862,2.79751423 C72.8034483,1.88285906 70.6939655,1.82079009 69.4362069,1.59923837 Z M25.6689655,19.3337211 C21.7198276,21.8845832 12.7939655,21.0595832 9.3137931,17.6130315 C8.79224138,17.0966522 8.5862069,16.8276866 8.22931034,16.1276866 C7.17155172,14.0552729 7.42327586,10.9914798 7.42327586,8.36820389 C7.42327586,3.86044527 11.1913793,2.94406596 15.1318966,2.94406596 C21.7137931,2.94406596 29.6922414,1.95613492 29.6922414,10.2242384 C29.6922414,14.2578591 28.4724138,17.5233763 25.6689655,19.3337211 Z M65.3801724,11.5087211 C65.3801724,20.4673418 56.0586207,21.8526866 49.2758621,20.1897556 C46.5896552,19.5311349 44.6612069,17.6035487 43.8560345,15.0457901 C43.4775862,13.8423418 43.1103448,12.0216522 43.1103448,10.5095832 C43.1103448,7.69492803 43.762069,5.76044527 45.4741379,4.59406596 C48.5215517,2.51906596 53.8758621,2.94406596 57.6706897,2.94406596 C59.575,2.94406596 61.6034483,3.28889354 63.1922414,4.13199699 C65.8241379,5.52854872 65.3801724,8.28975561 65.3801724,11.5087211 Z" id="Shape" fill="#58585A" fill-rule="nonzero"></path>
                    <path d="M56.0344828,4.31034483 C61.346374,4.59501653 63.9528509,7.0732361 63.8539132,11.7450035 C63.7549756,16.416771 61.1484988,13.9385514 56.0344828,4.31034483 Z" id="Path-3" fill="#F29400"></path>
                </g>
            </g>
        </g>
    </g>
</svg>