<?xml version="1.0" encoding="UTF-8"?>
<svg width="59px" height="46px" viewBox="0 0 59 46" version="1.1" xmlns="http://www.w3.org/2000/svg" xmlns:xlink="http://www.w3.org/1999/xlink">
    <!-- Generator: sketchtool 51.1 (57501) - http://www.bohemiancoding.com/sketch -->
    <title>33E6BBA3-ECEC-4D56-8B14-B66D8911FD96</title>
    <desc>Created with sketchtool.</desc>
    <defs></defs>
    <g id="Screens" stroke="none" stroke-width="1" fill="none" fill-rule="evenodd">
        <g id="Optical" transform="translate(-754.000000, -318.000000)" fill-rule="nonzero">
            <g id="Lenses" transform="translate(754.000000, 318.000000)">
                <g id="lense">
                    <path d="M23.2762829,33.8651126 C12.301746,34.4426918 3.72232379,27.6939627 3.12012326,16.1547841 C2.82330785,10.4672994 4.48679388,7.25812799 8.03410366,5.47132885 C10.9077634,4.02385089 14.0322372,3.5839313 21.6228836,3.18441666 C21.6489349,3.18304555 21.6489349,3.18304555 21.6749919,3.18167419 C33.7541709,2.54595882 39.4245711,5.40394844 39.8846534,14.2199028 C40.4251413,24.5765626 32.9693048,33.3549784 23.2762829,33.8651126 Z M23.437881,36.9616065 C34.8720076,36.3598395 43.5959824,26.0883323 42.9681301,14.0576225 C42.3943762,3.06352903 35.0696506,-0.62827213 21.5133938,0.0851804024 C21.4873349,0.0865518611 21.4873349,0.0865518611 21.4612748,0.0879234284 C13.403138,0.512043245 10.0577473,0.983067508 6.64973351,2.69970247 C1.95179868,5.06607767 -0.321627136,9.45193554 0.0366465421,16.3170644 C0.733415296,29.6683301 10.8474682,37.6242276 23.437881,36.9616065 Z" id="Shape" fill="#58585A"></path>
                    <path d="M7.55645014,16.0527673 C7.53743571,15.93172 7.50750873,15.7004109 7.47719113,15.3834349 C7.37154433,14.2788783 7.35740613,13.1138934 7.49200305,12.0372514 C7.62296326,10.9896996 7.88682562,10.1273595 8.28900641,9.51601942 C8.76073748,8.79895853 10.6845194,8.17568452 13.4691185,7.7974345 C14.7368376,7.62523204 16.0998116,7.510526 17.4634606,7.44274335 C17.9412437,7.41899431 18.384731,7.40282648 18.7822949,7.39284829 C19.019645,7.38689121 19.1880285,7.38432253 19.2758621,7.38373914 L19.2661474,5.92 C19.169596,5.92064129 18.9922573,5.92334658 18.7455964,5.92953736 C18.3364756,5.9398056 17.8810855,5.95640735 17.3908466,5.98077555 C15.988719,6.05047082 14.5859163,6.16852883 13.2722439,6.34697339 C10.0371497,6.78641708 7.87148226,7.48805804 7.06674151,8.71131457 C6.52282211,9.53810626 6.19650135,10.6045694 6.04010287,11.8556022 C5.8902491,13.0542838 5.90561352,14.3203075 6.02063289,15.5228562 C6.05391678,15.8708454 6.08759128,16.1311194 6.11097785,16.28 L7.55645014,16.0527673 Z" id="Shape" fill="#F29400"></path>
                </g>
                <g id="lense" transform="translate(37.500000, 27.500000) scale(-1, 1) translate(-37.500000, -27.500000) translate(16.000000, 9.000000)">
                    <path d="M23.2762829,33.8651126 C12.301746,34.4426918 3.72232379,27.6939627 3.12012326,16.1547841 C2.82330785,10.4672994 4.48679388,7.25812799 8.03410366,5.47132885 C10.9077634,4.02385089 14.0322372,3.5839313 21.6228836,3.18441666 C21.6489349,3.18304555 21.6489349,3.18304555 21.6749919,3.18167419 C33.7541709,2.54595882 39.4245711,5.40394844 39.8846534,14.2199028 C40.4251413,24.5765626 32.9693048,33.3549784 23.2762829,33.8651126 Z M23.437881,36.9616065 C34.8720076,36.3598395 43.5959824,26.0883323 42.9681301,14.0576225 C42.3943762,3.06352903 35.0696506,-0.62827213 21.5133938,0.0851804024 C21.4873349,0.0865518611 21.4873349,0.0865518611 21.4612748,0.0879234284 C13.403138,0.512043245 10.0577473,0.983067508 6.64973351,2.69970247 C1.95179868,5.06607767 -0.321627136,9.45193554 0.0366465421,16.3170644 C0.733415296,29.6683301 10.8474682,37.6242276 23.437881,36.9616065 Z" id="Shape" fill="#58585A"></path>
                    <path d="M7.55645014,16.0527673 C7.53743571,15.93172 7.50750873,15.7004109 7.47719113,15.3834349 C7.37154433,14.2788783 7.35740613,13.1138934 7.49200305,12.0372514 C7.62296326,10.9896996 7.88682562,10.1273595 8.28900641,9.51601942 C8.76073748,8.79895853 10.6845194,8.17568452 13.4691185,7.7974345 C14.7368376,7.62523204 16.0998116,7.510526 17.4634606,7.44274335 C17.9412437,7.41899431 18.384731,7.40282648 18.7822949,7.39284829 C19.019645,7.38689121 19.1880285,7.38432253 19.2758621,7.38373914 L19.2661474,5.92 C19.169596,5.92064129 18.9922573,5.92334658 18.7455964,5.92953736 C18.3364756,5.9398056 17.8810855,5.95640735 17.3908466,5.98077555 C15.988719,6.05047082 14.5859163,6.16852883 13.2722439,6.34697339 C10.0371497,6.78641708 7.87148226,7.48805804 7.06674151,8.71131457 C6.52282211,9.53810626 6.19650135,10.6045694 6.04010287,11.8556022 C5.8902491,13.0542838 5.90561352,14.3203075 6.02063289,15.5228562 C6.05391678,15.8708454 6.08759128,16.1311194 6.11097785,16.28 L7.55645014,16.0527673 Z" id="Shape" fill="#F29400"></path>
                </g>
            </g>
        </g>
    </g>
</svg>