<?xml version="1.0" encoding="UTF-8"?>
<svg width="64px" height="68px" viewBox="0 0 64 68" version="1.1" xmlns="http://www.w3.org/2000/svg" xmlns:xlink="http://www.w3.org/1999/xlink">
    <!-- Generator: sketchtool 51.1 (57501) - http://www.bohemiancoding.com/sketch -->
    <title>0856E617-674B-4621-91D5-3005A8BBECF5</title>
    <desc>Created with sketchtool.</desc>
    <defs></defs>
    <g id="Screens" stroke="none" stroke-width="1" fill="none" fill-rule="evenodd">
        <g id="Care_type" transform="translate(-507.000000, -503.000000)">
            <g id="Group" transform="translate(140.000000, 130.000000)">
                <g id="picto-hospitalisation" transform="translate(367.000000, 373.000000)">
                    <path d="M60,4 L60,64 L30,64 L30,4 L60,4 Z M26,2 L26,66 C26,67.1045695 26.8954305,68 28,68 L62,68 C63.1045695,68 64,67.1045695 64,66 L64,2 C64,0.8954305 63.1045695,0 62,0 L28,0 C26.8954305,0 26,0.8954305 26,2 Z" id="Shape" fill="#58585A"></path>
                    <path d="M47,7.99980749 C47,7.44762906 46.5566468,7 45.9906311,7 L44.0093689,7 C43.4519098,7 43,7.44371665 43,7.99980749 L43,12 L38.9998075,12 C38.4476291,12 38,12.4433532 38,13.0093689 L38,14.9906311 C38,15.5480902 38.4437166,16 38.9998075,16 L43,16 L43,20.0001925 C43,20.5523709 43.4433532,21 44.0093689,21 L45.9906311,21 C46.5480902,21 47,20.5562834 47,20.0001925 L47,16 L51.0001925,16 C51.5523709,16 52,15.5566468 52,14.9906311 L52,13.0093689 C52,12.4519098 51.5562834,12 51.0001925,12 L47,12 L47,7.99980749 Z M41,55 L49,55 L49,64 C49,65.1045695 49.8954305,66 51,66 C52.1045695,66 53,65.1045695 53,64 L53,53 C53,51.8954305 52.1045695,51 51,51 L39,51 C37.8954305,51 37,51.8954305 37,53 L37,64 C37,65.1045695 37.8954305,66 39,66 C40.1045695,66 41,65.1045695 41,64 L41,55 Z M41,48 C42.1045695,48 43,47.1045695 43,46 C43,44.8954305 42.1045695,44 41,44 L37,44 C35.8954305,44 35,44.8954305 35,46 C35,47.1045695 35.8954305,48 37,48 L41,48 Z M53,48 C54.1045695,48 55,47.1045695 55,46 C55,44.8954305 54.1045695,44 53,44 L49,44 C47.8954305,44 47,44.8954305 47,46 C47,47.1045695 47.8954305,48 49,48 L53,48 Z M41,28 C42.1045695,28 43,27.1045695 43,26 C43,24.8954305 42.1045695,24 41,24 L37,24 C35.8954305,24 35,24.8954305 35,26 C35,27.1045695 35.8954305,28 37,28 L41,28 Z M53,28 C54.1045695,28 55,27.1045695 55,26 C55,24.8954305 54.1045695,24 53,24 L49,24 C47.8954305,24 47,24.8954305 47,26 C47,27.1045695 47.8954305,28 49,28 L53,28 Z M41,38 C42.1045695,38 43,37.1045695 43,36 C43,34.8954305 42.1045695,34 41,34 L37,34 C35.8954305,34 35,34.8954305 35,36 C35,37.1045695 35.8954305,38 37,38 L41,38 Z M53,38 C54.1045695,38 55,37.1045695 55,36 C55,34.8954305 54.1045695,34 53,34 L49,34 C47.8954305,34 47,34.8954305 47,36 C47,37.1045695 47.8954305,38 49,38 L53,38 Z M20,58 C21.1045695,58 22,57.1045695 22,56 C22,54.8954305 21.1045695,54 20,54 L10,54 C8.8954305,54 8,54.8954305 8,56 C8,57.1045695 8.8954305,58 10,58 L20,58 Z M20,48 C21.1045695,48 22,47.1045695 22,46 C22,44.8954305 21.1045695,44 20,44 L10,44 C8.8954305,44 8,44.8954305 8,46 C8,47.1045695 8.8954305,48 10,48 L20,48 Z M20,38 C21.1045695,38 22,37.1045695 22,36 C22,34.8954305 21.1045695,34 20,34 L10,34 C8.8954305,34 8,34.8954305 8,36 C8,37.1045695 8.8954305,38 10,38 L20,38 Z M20,28 C21.1045695,28 22,27.1045695 22,26 C22,24.8954305 21.1045695,24 20,24 L10,24 C8.8954305,24 8,24.8954305 8,26 C8,27.1045695 8.8954305,28 10,28 L20,28 Z" id="Shape" fill="#F29400"></path>
                    <path d="M4,64 L4,18 L26,18 C27.1045695,18 28,17.1045695 28,16 C28,14.8954305 27.1045695,14 26,14 L2,14 C0.8954305,14 0,14.8954305 0,16 L0,66 C0,67.1045695 0.8954305,68 2,68 L28,68 C29.1045695,68 30,67.1045695 30,66 C30,64.8954305 29.1045695,64 28,64 L4,64 Z" id="Shape" fill="#58585A"></path>
                </g>
            </g>
        </g>
    </g>
</svg>