<?xml version="1.0" encoding="UTF-8"?>
<svg width="85px" height="29px" viewBox="0 0 85 29" version="1.1" xmlns="http://www.w3.org/2000/svg" xmlns:xlink="http://www.w3.org/1999/xlink">
    <!-- Generator: sketchtool 51.1 (57501) - http://www.bohemiancoding.com/sketch -->
    <title>96809817-DFDC-44F1-BEBC-9143081BFEA5</title>
    <desc>Created with sketchtool.</desc>
    <defs></defs>
    <g id="Screens" stroke="none" stroke-width="1" fill="none" fill-rule="evenodd">
        <g id="Care_type" transform="translate(-501.000000, -326.000000)">
            <g id="Group" transform="translate(140.000000, 130.000000)">
                <g id="picto-optique" transform="translate(361.000000, 196.000000)">
                    <path d="M80.546,1.85511651 C67.227,-0.48388349 63.137,-0.61088349 49.392,1.47311651 C47.886,1.70211651 45.664,2.42011651 44.047,2.42011651 C37.978,2.42011651 41.092,2.49211651 35.46,1.56811651 C20.005,-0.62788349 16.46,-0.11288349 1.915,2.18211651 C1.1,2.31111651 0,2.42011651 0,3.24711651 C0,7.23911651 2.748,6.02311651 4.334,10.0081165 C5.538,13.0341165 4.626,15.5861165 5.813,19.2931165 C6.656,21.9261165 8.208,24.0991165 10.4,25.4691165 C16.635,29.3661165 30.639,29.6061165 35.249,23.4281165 C38.585,18.9571165 37.835,15.2311165 38.845,10.7961165 C39.523,7.81811651 40.865,8.04911651 43.053,8.04911651 C47.294,8.04911651 44.508,17.0981165 49.203,23.4261165 C49.602,23.9641165 49.96,24.3801165 50.48,24.7981165 C56.03,29.2601165 67.654,29.3741165 73.95,25.5321165 C80.657,21.4381165 78.764,13.4671165 80.07,10.1251165 C81.693,5.97111651 84.451,7.21911651 84.451,3.24511651 C84.452,2.18411651 82.005,2.11211651 80.546,1.85511651 Z M29.776,22.4271165 C25.195,25.3861165 14.841,24.4291165 10.804,20.4311165 C10.199,19.8321165 9.96,19.5201165 9.546,18.7081165 C8.319,16.3041165 8.611,12.7501165 8.611,9.70711651 C8.611,4.47811651 12.982,3.41511651 17.553,3.41511651 C25.188,3.41511651 34.443,2.26911651 34.443,11.8601165 C34.443,16.5391165 33.028,20.3271165 29.776,22.4271165 Z M75.841,13.3501165 C75.841,23.7421165 65.028,25.3491165 57.16,23.4201165 C54.044,22.6561165 51.807,20.4201165 50.873,17.4531165 C50.434,16.0571165 50.008,13.9451165 50.008,12.1911165 C50.008,8.92611651 50.764,6.68211651 52.75,5.32911651 C56.285,2.92211651 62.496,3.41511651 66.898,3.41511651 C69.107,3.41511651 71.46,3.81511651 73.303,4.79311651 C76.356,6.41311651 75.841,9.61611651 75.841,13.3501165 Z" id="Shape" fill="#58585A" fill-rule="nonzero"></path>
                    <path d="M65,5 C71.1617939,5.33021917 74.185307,8.20495388 74.0705394,13.6242041 C73.9557717,19.0434543 70.9322586,16.1687196 65,5 Z" id="Path-3" fill="#F29400"></path>
                </g>
            </g>
        </g>
    </g>
</svg>