<?xml version="1.0" encoding="UTF-8"?>
<svg width="36px" height="48px" viewBox="0 0 36 48" version="1.1" xmlns="http://www.w3.org/2000/svg" xmlns:xlink="http://www.w3.org/1999/xlink">
    <!-- Generator: sketchtool 51.1 (57501) - http://www.bohemiancoding.com/sketch -->
    <title>5184983A-9631-4C46-93E3-2E935147036F</title>
    <desc>Created with sketchtool.</desc>
    <defs></defs>
    <g id="Screens" stroke="none" stroke-width="1" fill="none" fill-rule="evenodd">
        <g id="Care_type" transform="translate(-764.000000, -512.000000)">
            <g id="Group" transform="translate(140.000000, 130.000000)">
                <g id="picto-divers" transform="translate(624.000000, 382.000000)">
                    <rect id="Rectangle-7-Copy-2" fill="#F29400" x="5" y="16" width="5" height="5"></rect>
                    <rect id="Rectangle-7-Copy-2" fill="#F29400" x="5" y="25" width="5" height="5"></rect>
                    <rect id="Rectangle-7-Copy-2" fill="#F29400" x="5" y="35" width="5" height="5"></rect>
                    <path d="M13.261374,0.00118557519 C12.6991678,0.0535765082 12.2703026,0.521489882 12.2727376,1.07983726 L12.2727376,2.69781479 L9.81819213,2.69781479 C9.21572462,2.69787432 8.72734325,3.18076826 8.72728304,3.77646647 L8.72728304,4.85511816 L1.09091941,4.85511816 C1.05684724,4.85353739 1.02271885,4.85353739 0.98864668,4.85511816 C0.426440577,4.90750909 -0.00242462852,5.37542247 1.03167448e-05,5.93376984 L1.03167448e-05,46.383208 C7.05243466e-05,46.9789063 0.488451894,47.4618002 1.09091941,47.4618597 L34.9091012,47.4618597 C35.5115687,47.4618002 35.9999501,46.9789063 36.0000103,46.383208 L36.0000103,5.93376984 C35.9999501,5.33807163 35.5115687,4.85517769 34.9091012,4.85511816 L27.2727376,4.85511816 L27.2727376,3.77646647 C27.2726774,3.18076826 26.784296,2.69787432 26.1818285,2.69781479 L23.727283,2.69781479 L23.727283,1.07983726 C23.7272228,0.484139045 23.2388415,0.0012451063 22.636374,0.00118557519 L13.3636467,0.00118557519 C13.3295745,-0.000395191728 13.2954461,-0.000395191728 13.261374,0.00118557519 Z M14.4545558,2.15848895 L21.5454649,2.15848895 L21.5454649,3.77646647 C21.5455251,4.37216469 22.0339064,4.85505863 22.636374,4.85511816 L25.0909194,4.85511816 L25.0909194,7.55174737 L10.9091012,7.55174737 L10.9091012,4.85511816 L13.3636467,4.85511816 C13.9661142,4.85505863 14.4544956,4.37216469 14.4545558,3.77646647 L14.4545558,2.15848895 Z M2.1818285,7.01242153 L8.72728304,7.01242153 L8.72728304,8.63039906 C8.72734325,9.22609727 9.21572462,9.70899121 9.81819213,9.70905074 L26.1818285,9.70905074 C26.784296,9.70899121 27.2726774,9.22609727 27.2727376,8.63039906 L27.2727376,7.01242153 L33.8181921,7.01242153 L33.8181921,45.3045564 L2.1818285,45.3045564 L2.1818285,7.01242153 Z M4.8068285,15.1023092 C4.2446224,15.1547001 3.81575719,15.6226135 3.81819213,16.1809609 L3.81819213,21.5742193 C3.81825234,22.1699175 4.30663371,22.6528114 4.90910123,22.652871 L10.3636467,22.652871 C10.9661142,22.6528114 11.4544956,22.1699175 11.4545558,21.5742193 L11.4545558,16.1809609 C11.4544956,15.5852626 10.9661142,15.1023687 10.3636467,15.1023092 L4.90910123,15.1023092 C4.87502906,15.1007284 4.84090066,15.1007284 4.8068285,15.1023092 Z M6.00001032,17.2596125 L9.27273759,17.2596125 L9.27273759,20.4955676 L6.00001032,20.4955676 L6.00001032,17.2596125 Z M14.6250103,17.7989384 C14.2352104,17.8169277 13.8847362,18.0391963 13.7056387,18.3819982 C13.5265412,18.7248001 13.5460372,19.136041 13.756781,19.4607744 C13.9675248,19.7855078 14.3374905,19.9743852 14.727283,19.9562418 L31.0909194,19.9562418 C31.4843395,19.9617418 31.8502785,19.7573633 32.0486118,19.4213665 C32.2469452,19.0853698 32.2469452,18.6698104 32.0486118,18.3338136 C31.8502785,17.9978168 31.4843395,17.7934383 31.0909194,17.7989384 L14.727283,17.7989384 C14.6932109,17.7973576 14.6590825,17.7973576 14.6250103,17.7989384 Z M4.8068285,24.2708485 C4.2446224,24.3232394 3.81575719,24.7911528 3.81819213,25.3495002 L3.81819213,30.7427586 C3.81825234,31.3384568 4.30663371,31.8213508 4.90910123,31.8214103 L10.3636467,31.8214103 C10.9661142,31.8213508 11.4544956,31.3384568 11.4545558,30.7427586 L11.4545558,25.3495002 C11.4544956,24.753802 10.9661142,24.270908 10.3636467,24.2708485 L4.90910123,24.2708485 C4.87502906,24.2692677 4.84090066,24.2692677 4.8068285,24.2708485 Z M6.00001032,26.4281519 L9.27273759,26.4281519 L9.27273759,29.6641069 L6.00001032,29.6641069 L6.00001032,26.4281519 Z M14.6250103,26.9674777 C14.2352104,26.985467 13.8847362,27.2077356 13.7056387,27.5505375 C13.5265412,27.8933394 13.5460372,28.3045803 13.756781,28.6293138 C13.9675248,28.9540472 14.3374905,29.1429246 14.727283,29.1247811 L31.0909194,29.1247811 C31.4843395,29.1302811 31.8502785,28.9259027 32.0486118,28.5899059 C32.2469452,28.2539091 32.2469452,27.8383497 32.0486118,27.5023529 C31.8502785,27.1663561 31.4843395,26.9619777 31.0909194,26.9674777 L14.727283,26.9674777 C14.6932109,26.9658969 14.6590825,26.9658969 14.6250103,26.9674777 Z M4.8068285,33.4393878 C4.2446224,33.4917788 3.81575719,33.9596921 3.81819213,34.5180395 L3.81819213,39.9112979 C3.81825234,40.5069962 4.30663371,40.9898901 4.90910123,40.9899496 L10.3636467,40.9899496 C10.9661142,40.9898901 11.4544956,40.5069962 11.4545558,39.9112979 L11.4545558,34.5180395 C11.4544956,33.9223413 10.9661142,33.4394474 10.3636467,33.4393878 L4.90910123,33.4393878 C4.87502906,33.4378071 4.84090066,33.4378071 4.8068285,33.4393878 Z M6.00001032,35.5966912 L9.27273759,35.5966912 L9.27273759,38.8326462 L6.00001032,38.8326462 L6.00001032,35.5966912 Z M14.6250103,36.136017 C14.2352104,36.1540064 13.8847362,36.3762749 13.7056387,36.7190768 C13.5265412,37.0618787 13.5460372,37.4731197 13.756781,37.7978531 C13.9675248,38.1225865 14.3374905,38.3114639 14.727283,38.2933204 L31.0909194,38.2933204 C31.4843395,38.2988205 31.8502785,38.094442 32.0486118,37.7584452 C32.2469452,37.4224484 32.2469452,37.006889 32.0486118,36.6708922 C31.8502785,36.3348955 31.4843395,36.130517 31.0909194,36.136017 L14.727283,36.136017 C14.6932109,36.1344363 14.6590825,36.1344363 14.6250103,36.136017 Z" id="Shape" fill="#58585A" fill-rule="nonzero"></path>
                </g>
            </g>
        </g>
    </g>
</svg>